/* XPM */ 
static const char* sort_desc_xpm[] = { 
/* columns rows colors chars-per-pixel */ 
"16 16 2 1", 
". c #ACA899", 
"  c #FF0000", 
/* pixels */ 
"                ", 
"                ", 
"                ", 
"                ", 
"                ", 
"                ", 
"    .........   ", 
"     .......    ", 
"      .....     ", 
"       ...      ", 
"        .       ", 
"                ", 
"                ", 
"                ", 
"                ", 
"                " 


}; 
